<svg xmlns="http://www.w3.org/2000/svg" height="627pt" version="1.1" viewBox="-53 0 627 627.06096" width="627pt">
<g id="surface1">
<path d="M 261.195312 284.867188 C 294.191406 284.867188 320.9375 258.121094 320.9375 225.128906 C 320.9375 192.132812 294.191406 165.386719 261.195312 165.386719 C 228.246094 165.386719 201.523438 192.0625 201.453125 225.011719 C 201.382812 258.007812 228.082031 284.800781 261.078125 284.871094 C 261.113281 284.867188 261.148438 284.867188 261.195312 284.867188 Z M 261.195312 188.335938 C 281.445312 188.335938 297.871094 204.757812 297.871094 225.011719 C 297.871094 245.261719 281.445312 261.6875 261.195312 261.6875 C 240.941406 261.6875 224.519531 245.261719 224.519531 225.011719 C 224.519531 204.757812 240.929688 188.335938 261.195312 188.335938 Z M 261.195312 188.335938 " style=" stroke:none;fill-rule:nonzero;fill:rgb(0%,0%,0%);fill-opacity:1;" />
<path d="M 494.164062 567.199219 C 508.210938 552.355469 510.34375 529.867188 499.351562 512.648438 L 360.957031 294.324219 C 399.363281 239.105469 385.730469 163.207031 330.507812 124.800781 C 321.433594 118.492188 311.539062 113.441406 301.101562 109.796875 L 301.101562 11.53125 C 301.097656 5.167969 295.933594 0 289.566406 0 L 231.902344 0 C 225.535156 0 220.367188 5.167969 220.367188 11.53125 L 220.367188 110.140625 C 156.890625 132.203125 123.316406 201.542969 145.378906 265.019531 C 149.035156 275.550781 154.132812 285.527344 160.511719 294.671875 L 22.113281 512.761719 C 11.421875 530.167969 13.949219 552.597656 28.226562 567.199219 L 1.816406 609.179688 C -1.589844 614.566406 0.00390625 621.695312 5.390625 625.097656 C 10.777344 628.5 17.902344 626.90625 21.304688 621.519531 L 47.714844 579.65625 C 67.3125 586.089844 88.773438 578.339844 99.730469 560.855469 L 160.511719 463.402344 L 252.777344 463.402344 L 252.777344 484.160156 C 252.777344 490.527344 257.941406 495.695312 264.308594 495.695312 C 270.675781 495.695312 275.84375 490.527344 275.84375 484.160156 L 275.84375 463.402344 L 361.996094 463.402344 L 422.660156 560.855469 C 433.523438 578.167969 454.71875 585.953125 474.210938 579.769531 L 500.621094 621.636719 C 504.023438 627.023438 511.152344 628.613281 516.539062 625.210938 C 521.921875 621.808594 523.515625 614.679688 520.113281 609.296875 Z M 243.78125 23.066406 L 278.378906 23.066406 L 278.378906 104.488281 C 266.914062 102.667969 255.242188 102.667969 243.78125 104.488281 Z M 261.195312 126.171875 C 315.851562 126.171875 360.148438 170.472656 360.148438 225.128906 C 360.148438 279.78125 315.851562 324.082031 261.195312 324.082031 C 206.539062 324.082031 162.238281 279.78125 162.238281 225.128906 C 162.296875 170.507812 206.5625 126.242188 261.195312 126.171875 Z M 79.777344 548.515625 C 72.328125 558.132812 58.488281 559.886719 48.867188 552.4375 C 40.644531 546.070312 38.003906 534.816406 42.527344 525.449219 L 176.425781 313.46875 C 187.035156 323.757812 199.421875 332.050781 212.984375 337.921875 Z M 275.84375 440.679688 L 275.84375 417.269531 C 275.84375 410.902344 270.675781 405.738281 264.308594 405.738281 C 257.941406 405.738281 252.777344 410.902344 252.777344 417.269531 L 252.777344 440.335938 L 175.042969 440.335938 L 235.820312 344.148438 C 252.546875 347.734375 269.84375 347.734375 286.566406 344.148438 L 347.347656 440.335938 Z M 482.628906 541.597656 C 479.898438 553.453125 468.0625 560.84375 456.21875 558.113281 C 450.605469 556.820312 445.726562 553.371094 442.613281 548.515625 L 309.289062 337.230469 C 322.851562 331.359375 335.238281 323.066406 345.847656 312.777344 L 480.324219 524.988281 C 483.277344 529.992188 484.105469 535.980469 482.628906 541.597656 Z M 482.628906 541.597656 " style=" stroke:none;fill-rule:nonzero;fill:rgb(0%,0%,0%);fill-opacity:1;" />
</g>
</svg>