<svg xmlns="http://www.w3.org/2000/svg" height="549pt" version="1.1" viewBox="1 -8 549.722 549" width="549pt">
<g id="surface1">
<path d="M 130.171875 360.300781 L 155.789062 360.300781 C 158.28125 368.632812 161.640625 376.675781 165.832031 384.300781 L 148.058594 402.535156 C 143.582031 407.035156 143.582031 414.304688 148.058594 418.808594 L 181.179688 451.8125 C 185.679688 456.289062 192.949219 456.289062 197.449219 451.8125 L 215.566406 433.691406 C 223.195312 437.882812 231.238281 441.238281 239.570312 443.734375 L 239.570312 469.351562 C 239.570312 475.722656 244.742188 480.890625 251.109375 480.890625 L 298.539062 480.890625 C 304.910156 480.890625 310.082031 475.722656 310.082031 469.351562 L 310.082031 444.195312 C 318.414062 441.703125 326.457031 438.34375 334.082031 434.15625 L 352.429688 451.808594 C 354.613281 453.96875 357.554688 455.179688 360.625 455.15625 C 363.695312 455.179688 366.636719 453.96875 368.816406 451.808594 L 401.9375 418.804688 C 406.414062 414.304688 406.414062 407.035156 401.9375 402.535156 L 383.820312 384.417969 C 388.007812 376.789062 391.367188 368.746094 393.859375 360.414062 L 419.476562 360.414062 C 425.847656 360.414062 431.019531 355.242188 431.019531 348.875 L 431.019531 301.789062 C 431.019531 295.417969 425.847656 290.25 419.476562 290.25 L 394.207031 290.25 C 391.714844 281.917969 388.355469 273.875 384.164062 266.246094 L 401.9375 247.550781 C 406.414062 243.050781 406.414062 235.78125 401.9375 231.28125 L 368.703125 197.929688 C 364.203125 193.453125 356.929688 193.453125 352.429688 197.929688 L 334.3125 216.046875 C 326.683594 211.859375 318.640625 208.5 310.308594 206.007812 L 310.308594 180.15625 C 310.308594 173.789062 305.140625 168.617188 298.769531 168.617188 L 251.222656 168.617188 C 244.855469 168.617188 239.683594 173.789062 239.683594 180.15625 L 239.683594 205.777344 C 231.351562 208.269531 223.308594 211.628906 215.679688 215.816406 L 197.5625 197.929688 C 193.0625 193.453125 185.792969 193.453125 181.292969 197.929688 L 148.054688 231.28125 C 143.578125 235.78125 143.578125 243.050781 148.054688 247.550781 L 166.175781 265.667969 C 161.835938 273.460938 158.351562 281.699219 155.789062 290.25 L 130.167969 290.25 C 123.800781 290.25 118.628906 295.417969 118.628906 301.789062 L 118.628906 349.21875 C 118.875 355.417969 123.976562 360.300781 130.171875 360.300781 Z M 141.710938 312.871094 L 164.792969 312.871094 C 170.332031 312.996094 175.167969 309.164062 176.332031 303.753906 C 178.90625 291.796875 183.636719 280.417969 190.296875 270.171875 C 193.226562 265.507812 192.453125 259.414062 188.449219 255.628906 L 172.179688 239.359375 L 189.488281 222.164062 L 205.757812 238.4375 C 209.613281 242.265625 215.625 242.902344 220.183594 239.9375 C 230.433594 233.277344 241.8125 228.546875 253.765625 225.972656 C 259.179688 224.808594 263.011719 219.972656 262.882812 214.433594 L 262.882812 191.351562 L 287.234375 191.351562 L 287.234375 214.433594 C 287.105469 219.972656 290.9375 224.808594 296.347656 225.972656 C 308.304688 228.546875 319.683594 233.277344 329.929688 239.9375 C 334.464844 242.832031 340.410156 242.207031 344.242188 238.4375 L 360.511719 222.164062 L 377.820312 239.472656 L 361.550781 255.628906 C 357.71875 259.484375 357.082031 265.496094 360.050781 270.054688 C 366.707031 280.304688 371.441406 291.683594 374.011719 303.636719 C 375.179688 309.050781 380.015625 312.882812 385.554688 312.753906 L 408.632812 312.753906 L 408.632812 337.105469 L 385.554688 337.105469 C 380.015625 336.976562 375.179688 340.808594 374.015625 346.21875 C 371.453125 358.175781 366.71875 369.554688 360.050781 379.800781 C 357.15625 384.335938 357.777344 390.28125 361.550781 394.113281 L 377.824219 410.382812 L 360.511719 427.691406 L 344.242188 411.535156 C 340.386719 407.707031 334.375 407.070312 329.816406 410.035156 C 319.570312 416.707031 308.191406 421.4375 296.234375 424 C 290.820312 425.164062 286.992188 430 287.117188 435.539062 L 287.117188 458.621094 L 262.769531 458.621094 L 262.769531 435.539062 C 262.894531 430 259.066406 425.164062 253.652344 424 C 241.695312 421.4375 230.316406 416.707031 220.070312 410.035156 C 215.511719 407.070312 209.5 407.707031 205.644531 411.535156 L 189.375 427.808594 L 172.179688 410.613281 L 188.449219 394.109375 C 192.28125 390.257812 192.917969 384.242188 189.949219 379.683594 C 183.28125 369.4375 178.546875 358.058594 175.988281 346.101562 C 174.820312 340.691406 169.984375 336.859375 164.445312 336.988281 L 141.367188 336.988281 Z M 141.710938 312.871094 " style=" stroke:none;fill-rule:nonzero;fill:rgb(0%,0%,0%);fill-opacity:1;" />
<path d="M 275 394.113281 C 313.242188 394.113281 344.242188 363.117188 344.242188 324.871094 C 344.242188 286.628906 313.242188 255.628906 275 255.628906 C 236.753906 255.628906 205.757812 286.628906 205.757812 324.871094 C 205.757812 363.117188 236.757812 394.113281 275 394.113281 Z M 275 279.519531 C 300.492188 279.519531 321.160156 300.1875 321.160156 325.679688 C 321.160156 351.171875 300.492188 371.839844 275 371.839844 C 249.507812 371.839844 228.839844 351.171875 228.839844 325.679688 C 228.710938 300.1875 249.277344 279.414062 274.769531 279.289062 C 274.847656 279.289062 274.917969 279.289062 275 279.289062 Z M 275 279.519531 " style=" stroke:none;fill-rule:nonzero;fill:rgb(0%,0%,0%);fill-opacity:1;" />
<path d="M 465.988281 0.363281 L 84.011719 0.363281 C 45.238281 0.363281 0 22.40625 0 84.375 L 0 450.082031 C 0 512.050781 45.238281 534.09375 84.011719 534.09375 L 465.988281 534.09375 C 527.957031 534.09375 550 488.855469 550 450.082031 L 550 84.261719 C 550 22.292969 504.761719 0.363281 465.988281 0.363281 Z M 526.917969 450.429688 C 526.917969 468.777344 521.035156 511.359375 465.988281 511.359375 L 84.011719 511.359375 C 65.664062 511.359375 23.078125 505.472656 23.078125 450.429688 L 23.078125 144.960938 L 526.917969 144.960938 Z M 526.917969 122.226562 L 23.082031 122.226562 L 23.082031 84.261719 C 23.082031 29.332031 65.664062 23.328125 84.011719 23.328125 L 465.988281 23.328125 C 484.335938 23.328125 526.921875 29.214844 526.921875 84.261719 C 526.917969 84.261719 526.917969 122.226562 526.917969 122.226562 Z M 526.917969 122.226562 " style=" stroke:none;fill-rule:nonzero;fill:rgb(0%,0%,0%);fill-opacity:1;" />
</g>
</svg>