<svg xmlns="http://www.w3.org/2000/svg" height="629pt" version="1.1" viewBox="-122 1 629 629.77185" width="629pt">
<g id="surface1">
<path d="M 163.816406 228.460938 L 162.316406 228.460938 L 162.316406 60.347656 C 162.316406 27 131.507812 0 93.660156 0 C 55.816406 0 25.007812 26.886719 25.007812 60.347656 L 25.007812 228.460938 L 23.507812 228.460938 C 10.757812 228.460938 0.429688 238.789062 0.429688 251.539062 L 0.429688 263.078125 C 0.429688 275.828125 10.757812 286.152344 23.507812 286.152344 L 58.816406 286.152344 L 58.816406 459.230469 L 45.199219 533.769531 C 44.980469 535.074219 44.980469 536.386719 45.199219 537.691406 L 58.933594 620.308594 C 59.84375 625.949219 64.757812 630.070312 70.46875 630 L 117.199219 630 C 122.910156 630.070312 127.828125 625.949219 128.738281 620.308594 L 142.46875 537.691406 C 142.6875 536.390625 142.6875 535.074219 142.46875 533.769531 L 128.855469 459.230469 L 128.855469 286.152344 L 164.164062 286.152344 C 176.914062 286.152344 187.242188 275.828125 187.242188 263.078125 L 187.242188 251.539062 C 187.242188 238.789062 176.914062 228.460938 164.164062 228.460938 C 164.058594 228.460938 163.941406 228.460938 163.816406 228.460938 Z M 48.082031 60.347656 C 48.082031 39.808594 68.507812 23.078125 93.660156 23.078125 C 118.8125 23.078125 139.238281 39.578125 139.238281 60.347656 L 139.238281 228.460938 L 48.082031 228.460938 C 48.082031 228.460938 48.082031 60.347656 48.082031 60.347656 Z M 107.277344 605.769531 L 80.046875 605.769531 L 68.507812 534.808594 L 81.890625 461.308594 C 81.960938 460.617188 81.960938 459.921875 81.890625 459.230469 L 81.890625 284.539062 L 105.546875 284.539062 L 105.546875 459 C 105.476562 459.691406 105.476562 460.382812 105.546875 461.078125 L 119.046875 534.578125 Z M 163.355469 261.691406 L 70.238281 261.691406 C 69.628906 261.632812 69.003906 261.632812 68.394531 261.691406 L 23.96875 261.691406 L 23.96875 251.191406 L 150.894531 251.191406 C 151.699219 251.285156 152.507812 251.285156 153.316406 251.191406 L 163.46875 251.191406 Z M 163.355469 261.691406 " style=" stroke:none;fill-rule:nonzero;fill:rgb(0%,0%,0%);fill-opacity:1;" />
<path d="M 75.777344 65.308594 C 69.40625 65.308594 64.238281 70.476562 64.238281 76.847656 L 64.238281 185.539062 C 64.238281 191.90625 69.40625 197.078125 75.777344 197.078125 C 82.144531 197.078125 87.316406 191.90625 87.316406 185.539062 L 87.316406 76.847656 C 87.316406 70.476562 82.15625 65.308594 75.777344 65.308594 Z M 75.777344 65.308594 " style=" stroke:none;fill-rule:nonzero;fill:rgb(0%,0%,0%);fill-opacity:1;" />
<path d="M 111.546875 65.308594 C 105.175781 65.308594 100.007812 70.476562 100.007812 76.847656 L 100.007812 185.539062 C 100.007812 191.90625 105.175781 197.078125 111.546875 197.078125 C 117.914062 197.078125 123.085938 191.90625 123.085938 185.539062 L 123.085938 76.847656 C 123.085938 70.476562 117.925781 65.308594 111.546875 65.308594 Z M 111.546875 65.308594 " style=" stroke:none;fill-rule:nonzero;fill:rgb(0%,0%,0%);fill-opacity:1;" />
<path d="M 384.890625 91.730469 C 384.914062 50.332031 356.667969 14.273438 316.46875 4.382812 C 310.285156 2.851562 304.03125 6.613281 302.484375 12.796875 C 302.125 14.273438 302.054688 15.808594 302.273438 17.308594 L 310.582031 71.882812 C 312.371094 83.835938 304.132812 94.960938 292.179688 96.75 C 280.226562 98.539062 269.101562 90.296875 267.316406 78.34375 L 259.582031 26.882812 C 258.589844 20.582031 252.683594 16.292969 246.382812 17.285156 C 244.570312 17.570312 242.839844 18.285156 241.351562 19.382812 C 201.335938 48.773438 192.730469 105.019531 222.117188 145.035156 C 228.324219 153.496094 235.976562 160.796875 244.699219 166.613281 L 244.699219 453.574219 C 203.578125 481.496094 192.867188 537.472656 220.792969 578.59375 C 233.035156 596.628906 251.414062 609.609375 272.507812 615.113281 C 273.464844 615.230469 274.433594 615.230469 275.390625 615.113281 C 281.761719 615.183594 286.988281 610.082031 287.058594 603.703125 C 287.070312 603.078125 287.023438 602.457031 286.929688 601.84375 L 278.277344 544.152344 C 276.464844 532.234375 284.644531 521.097656 296.566406 519.289062 C 308.484375 517.476562 319.617188 525.65625 321.429688 537.578125 L 329.738281 592.5 C 330.671875 598.800781 336.546875 603.148438 342.847656 602.214844 C 344.703125 601.9375 346.457031 601.222656 347.96875 600.113281 C 388.191406 570.910156 397.109375 514.628906 367.90625 474.402344 C 361.6875 465.832031 354.003906 458.433594 345.199219 452.539062 L 345.199219 166.5 C 370.019531 149.699219 384.878906 121.695312 384.890625 91.730469 Z M 327.199219 470.078125 C 348.429688 481.871094 361.664062 504.171875 361.816406 528.460938 C 361.917969 542.6875 357.417969 556.566406 349.007812 568.039062 L 344.046875 535.382812 C 340.316406 510.855469 317.402344 493.984375 292.871094 497.710938 C 268.34375 501.4375 251.472656 524.355469 255.199219 548.882812 L 260.855469 586.382812 C 228.9375 567.75 218.171875 526.765625 236.808594 494.851562 C 242.867188 484.464844 251.613281 475.914062 262.125 470.078125 C 265.746094 468.035156 267.996094 464.203125 268.007812 460.039062 L 268.007812 160.039062 C 267.996094 155.871094 265.746094 152.042969 262.125 150 C 229.90625 131.871094 218.484375 91.074219 236.613281 58.855469 C 237.777344 56.792969 239.046875 54.785156 240.433594 52.847656 L 244.816406 82.039062 C 248.507812 106.570312 271.402344 123.460938 295.933594 119.769531 C 320.460938 116.078125 337.355469 93.183594 333.664062 68.652344 L 328.355469 34.039062 C 360.5 52.269531 371.785156 93.113281 353.554688 125.261719 C 347.589844 135.785156 338.878906 144.484375 328.355469 150.460938 C 324.730469 152.503906 322.480469 156.335938 322.46875 160.5 L 322.46875 460.5 C 322.515625 464.375 324.511719 467.976562 327.777344 470.078125 Z M 327.199219 470.078125 " style=" stroke:none;fill-rule:nonzero;fill:rgb(0%,0%,0%);fill-opacity:1;" />
</g>
</svg>