<svg xmlns="http://www.w3.org/2000/svg" height="611pt" version="1.1" viewBox="-98 0 611 611.78459" width="611pt">
<g id="surface1">
<path d="M 66.769531 327.582031 L 91.578125 327.582031 C 93.96875 335.589844 97.175781 343.320312 101.15625 350.65625 L 83.617188 368.195312 C 79.140625 372.695312 79.140625 379.964844 83.617188 384.464844 L 116.386719 417.234375 C 120.886719 421.710938 128.15625 421.710938 132.652344 417.234375 L 150.421875 399.808594 C 157.75 403.953125 165.480469 407.308594 173.5 409.847656 L 173.5 434.65625 C 173.5 441.023438 178.667969 446.195312 185.039062 446.195312 L 231.191406 446.195312 C 237.5625 446.195312 242.730469 441.023438 242.730469 434.65625 L 242.730469 409.847656 C 250.726562 407.460938 258.46875 404.25 265.804688 400.273438 L 283.34375 417.808594 C 287.84375 422.285156 295.113281 422.285156 299.613281 417.808594 L 332.382812 385.042969 C 336.859375 380.542969 336.859375 373.273438 332.382812 368.773438 L 314.84375 351.234375 C 318.824219 343.894531 322.03125 336.152344 324.421875 328.15625 L 349.226562 328.15625 C 355.597656 328.15625 360.765625 322.988281 360.765625 316.621094 L 360.765625 270.464844 C 360.765625 264.097656 355.597656 258.929688 349.226562 258.929688 L 324.652344 258.929688 C 322.273438 250.921875 319.066406 243.191406 315.074219 235.851562 L 332.613281 218.3125 C 337.089844 213.8125 337.089844 206.542969 332.613281 202.042969 L 299.84375 169.277344 C 295.34375 164.800781 288.074219 164.800781 283.574219 169.277344 L 265.804688 185.890625 C 258.46875 181.910156 250.738281 178.703125 242.730469 176.3125 L 242.730469 151.507812 C 242.730469 145.136719 237.5625 139.96875 231.191406 139.96875 L 185.039062 139.96875 C 178.667969 139.96875 173.5 145.136719 173.5 151.507812 L 173.5 176.3125 C 165.492188 178.726562 157.75 181.980469 150.421875 186.007812 L 132.886719 168.46875 C 128.386719 163.992188 121.117188 163.992188 116.617188 168.46875 L 83.847656 201.238281 C 79.371094 205.738281 79.371094 213.007812 83.847656 217.503906 L 101.386719 235.042969 C 97.40625 242.382812 94.199219 250.113281 91.808594 258.121094 L 66.773438 258.121094 C 60.402344 258.121094 55.234375 263.289062 55.234375 269.660156 L 55.234375 315.8125 C 55.105469 322.179688 60.171875 327.453125 66.542969 327.582031 C 66.621094 327.582031 66.703125 327.582031 66.769531 327.582031 Z M 78.308594 281.425781 L 100.460938 281.425781 C 106 281.554688 110.835938 277.722656 112 272.3125 C 114.46875 260.691406 119.050781 249.628906 125.5 239.660156 C 128.429688 235.066406 127.761719 229.054688 123.886719 225.234375 L 108.191406 209.542969 L 124.691406 193.042969 L 140.382812 208.734375 C 144.238281 212.566406 150.25 213.199219 154.808594 210.234375 C 164.765625 203.738281 175.84375 199.125 187.460938 196.621094 C 192.871094 195.453125 196.703125 190.621094 196.578125 185.082031 L 196.578125 163.042969 L 219.652344 163.042969 L 219.652344 185.199219 C 219.527344 190.734375 223.355469 195.570312 228.769531 196.738281 C 240.386719 199.242188 251.464844 203.855469 261.421875 210.351562 C 265.980469 213.316406 271.992188 212.683594 275.84375 208.851562 L 291.539062 193.160156 L 308.039062 209.660156 L 292.34375 225.234375 C 288.515625 229.089844 287.878906 235.101562 290.84375 239.660156 C 297.328125 249.628906 301.945312 260.691406 304.460938 272.3125 C 305.625 277.722656 310.460938 281.554688 315.996094 281.425781 L 338.152344 281.425781 L 338.152344 304.503906 L 315.769531 304.503906 C 310.230469 304.378906 305.394531 308.207031 304.230469 313.621094 C 301.714844 325.238281 297.097656 336.304688 290.613281 346.273438 C 287.648438 350.832031 288.285156 356.839844 292.113281 360.695312 L 307.808594 376.386719 L 291.308594 392.886719 L 275.613281 377.195312 C 271.933594 373.386719 266.117188 372.578125 261.539062 375.234375 C 251.582031 381.730469 240.503906 386.34375 228.882812 388.847656 C 223.472656 390.015625 219.640625 394.847656 219.769531 400.386719 L 219.769531 422.539062 L 196.578125 422.539062 L 196.578125 400.503906 C 196.703125 394.964844 192.875 390.128906 187.460938 388.964844 C 175.785156 386.4375 164.683594 381.777344 154.695312 375.234375 C 150.136719 372.269531 144.125 372.902344 140.269531 376.734375 L 124.578125 392.425781 L 108.078125 376.386719 L 123.769531 360.695312 C 127.601562 356.839844 128.238281 350.828125 125.269531 346.273438 C 118.785156 336.300781 114.171875 325.238281 111.65625 313.617188 C 110.488281 308.207031 105.65625 304.375 100.117188 304.503906 L 78.308594 304.503906 C 78.308594 304.503906 78.308594 281.425781 78.308594 281.425781 Z M 78.308594 281.425781 " style=" stroke:none;fill-rule:nonzero;fill:rgb(0%,0%,0%);fill-opacity:1;" />
<path d="M 208.117188 360.347656 C 245.328125 360.347656 275.5 330.175781 275.5 292.964844 C 275.5 255.753906 245.328125 225.582031 208.117188 225.582031 C 170.902344 225.582031 140.730469 255.753906 140.730469 292.964844 C 140.800781 330.152344 170.925781 360.28125 208.117188 360.347656 Z M 208.117188 248.3125 C 232.585938 248.3125 252.421875 268.144531 252.421875 292.621094 C 252.421875 317.09375 232.589844 336.925781 208.117188 336.925781 C 183.6875 336.925781 163.878906 317.164062 163.808594 292.734375 C 163.808594 268.238281 183.628906 248.371094 208.117188 248.3125 Z M 208.117188 248.3125 " style=" stroke:none;fill-rule:nonzero;fill:rgb(0%,0%,0%);fill-opacity:1;" />
<path d="M 381.191406 9.238281 C 368.914062 2.972656 355.285156 -0.1875 341.496094 0.0078125 L 74.964844 0.0078125 C 38.964844 0.0078125 0.425781 19.625 0.425781 74.546875 L 0.425781 537.460938 C 0.425781 592.382812 38.964844 612 74.964844 612 L 341.269531 612 C 396.191406 612 415.804688 573.460938 415.804688 537.460938 L 415.804688 74.546875 C 415.804688 35.890625 396.765625 17.546875 381.191406 9.238281 Z M 392.726562 537.460938 C 392.726562 556.730469 386.035156 588.921875 341.265625 588.921875 L 74.960938 588.921875 C 55.695312 588.921875 23.5 582.230469 23.5 537.460938 L 23.5 486.578125 L 392.726562 486.578125 Z M 392.726562 463.5 L 23.503906 463.5 L 23.503906 122.199219 L 392.726562 122.199219 Z M 392.726562 99.121094 L 23.503906 99.121094 L 23.503906 74.546875 C 23.503906 29.777344 55.695312 23.085938 74.964844 23.085938 L 341.269531 23.085938 C 351.074219 22.785156 360.8125 24.839844 369.652344 29.085938 C 384.882812 37.160156 392.730469 52.160156 392.730469 73.96875 L 392.730469 99.121094 Z M 392.726562 99.121094 " style=" stroke:none;fill-rule:nonzero;fill:rgb(0%,0%,0%);fill-opacity:1;" />
<path d="M 169.230469 546.808594 L 247 546.808594 C 253.367188 546.808594 258.535156 541.640625 258.535156 535.269531 C 258.535156 528.902344 253.367188 523.730469 247 523.730469 L 169.230469 523.730469 C 162.863281 523.730469 157.691406 528.902344 157.691406 535.269531 C 157.691406 541.640625 162.863281 546.808594 169.230469 546.808594 Z M 169.230469 546.808594 " style=" stroke:none;fill-rule:nonzero;fill:rgb(0%,0%,0%);fill-opacity:1;" />
<path d="M 247 48.238281 L 169.230469 48.238281 C 162.863281 48.238281 157.691406 53.40625 157.691406 59.777344 C 157.691406 66.144531 162.863281 71.316406 169.230469 71.316406 L 247 71.316406 C 253.367188 71.316406 258.535156 66.144531 258.535156 59.777344 C 258.535156 53.40625 253.378906 48.238281 247 48.238281 Z M 247 48.238281 " style=" stroke:none;fill-rule:nonzero;fill:rgb(0%,0%,0%);fill-opacity:1;" />
</g>
</svg>