<svg xmlns="http://www.w3.org/2000/svg" height="585pt" version="1.1" viewBox="0 -20 585.48053 585" width="585pt">
<g id="surface1">
<path d="M 573.472656 222.921875 L 548.695312 222.921875 C 542.414062 93.796875 432.652344 -5.773438 303.539062 0.503906 C 182.402344 6.394531 85.839844 103.824219 81.019531 224.996094 L 9.222656 239.632812 C 3.769531 240.738281 -0.113281 245.589844 0.00390625 251.15625 L 0.00390625 297.257812 C 0.00390625 303.617188 5.164062 308.78125 11.527344 308.78125 L 226.464844 308.78125 C 229.804688 344.855469 258.617188 372.859375 270.257812 382.65625 L 270.257812 534.089844 C 270.257812 540.453125 275.421875 545.617188 281.78125 545.617188 L 343.671875 545.617188 C 350.03125 545.617188 355.195312 540.453125 355.195312 534.089844 L 355.195312 378.507812 L 373.980469 357.53125 L 387.695312 357.53125 L 389.882812 372.167969 C 390.484375 376.027344 392.996094 379.324219 396.570312 380.925781 L 515.390625 434.976562 C 521.023438 437.558594 527.699219 435.21875 530.488281 429.675781 L 559.296875 372.054688 C 562.15625 366.359375 559.851562 359.433594 554.171875 356.585938 C 553.847656 356.425781 553.523438 356.289062 553.191406 356.148438 L 465.371094 321.574219 L 465.371094 308.550781 L 573.472656 308.550781 C 579.835938 308.550781 585 303.390625 585 297.027344 L 585 234.449219 C 585 228.085938 579.835938 222.921875 573.472656 222.921875 Z M 533.023438 372.742188 L 514.8125 409.160156 L 411.78125 362.371094 L 409.132812 344.046875 C 408.265625 338.367188 403.355469 334.183594 397.605469 334.25 L 368.792969 334.25 C 365.542969 334.261719 362.445312 335.644531 360.265625 338.054688 L 335.027344 366.175781 C 333.101562 368.285156 332.042969 371.039062 332.03125 373.898438 L 332.03125 522.566406 L 293.191406 522.566406 L 293.191406 376.664062 C 293.191406 373.03125 291.488281 369.621094 288.582031 367.441406 C 288.582031 367.441406 254.007812 341.28125 249.628906 308.320312 L 442.324219 308.320312 L 442.324219 329.179688 C 442.324219 333.90625 445.191406 338.148438 449.585938 339.898438 Z M 561.949219 285.269531 L 23.167969 285.269531 L 23.167969 260.378906 L 94.621094 245.742188 C 100.070312 244.636719 103.953125 239.785156 103.839844 234.21875 C 103.839844 117.644531 198.34375 23.140625 314.914062 23.140625 C 431.488281 23.140625 525.992188 117.644531 525.992188 234.21875 C 525.992188 240.578125 531.152344 245.742188 537.515625 245.742188 L 562.0625 245.742188 Z M 561.949219 285.269531 " style=" stroke:none;fill-rule:nonzero;fill:rgb(0%,0%,0%);fill-opacity:1;" />
<path d="M 329.378906 335.519531 C 329.378906 345.703125 321.125 353.960938 310.941406 353.960938 C 300.757812 353.960938 292.5 345.703125 292.5 335.519531 C 292.5 325.335938 300.757812 317.078125 310.941406 317.078125 C 321.125 317.078125 329.378906 325.335938 329.378906 335.519531 Z M 329.378906 335.519531 " style=" stroke:none;fill-rule:nonzero;fill:rgb(0%,0%,0%);fill-opacity:1;" />
<path d="M 334.566406 49.472656 C 328.203125 49.472656 323.042969 54.636719 323.042969 61 C 323.042969 67.359375 328.203125 72.523438 334.566406 72.523438 C 409.328125 72.59375 469.914062 133.179688 469.980469 207.941406 C 469.980469 214.300781 475.144531 219.464844 481.507812 219.464844 C 487.867188 219.464844 493.03125 214.300781 493.03125 207.941406 C 492.90625 120.480469 422.039062 49.601562 334.566406 49.472656 Z M 334.566406 49.472656 " style=" stroke:none;fill-rule:nonzero;fill:rgb(0%,0%,0%);fill-opacity:1;" />
</g>
</svg>