<svg xmlns="http://www.w3.org/2000/svg" height="564pt" version="1.1" viewBox="0 -38 564.255 564" width="564pt">
<g id="surface1">
<path d="M 552.472656 86.671875 L 254.675781 86.671875 L 254.675781 11.730469 C 254.734375 5.367188 249.613281 0.15625 243.25 0.109375 C 242.722656 0.109375 242.179688 0.132812 241.648438 0.203125 C 239.226562 0.203125 181.238281 8.734375 178.816406 54.847656 L 178.816406 119.179688 L 111.488281 119.179688 L 111.488281 60.730469 C 111.488281 17.957031 56.492188 1.355469 53.839844 0.664062 C 47.730469 -1.121094 41.332031 2.382812 39.535156 8.492188 C 39.1875 9.691406 39.039062 10.949219 39.085938 12.195312 L 39.890625 84.828125 L 11.527344 84.828125 C 5.164062 84.824219 0 89.992188 0 96.355469 L 0 285.546875 C 0.0234375 287.136719 0.378906 288.707031 1.039062 290.160156 L 86.007812 481.425781 C 87.828125 485.597656 91.941406 488.308594 96.496094 488.34375 L 98.917969 488.34375 C 104.324219 487.179688 108.152344 482.347656 108.027344 476.8125 L 108.027344 252.917969 L 257.902344 252.917969 L 257.902344 468.167969 C 257.902344 474.53125 263.066406 479.695312 269.433594 479.695312 C 290.761719 479.695312 333.648438 464.246094 343.21875 405.679688 C 349.707031 368.394531 361.339844 332.195312 377.804688 298.113281 L 552.46875 298.113281 C 558.832031 298.113281 563.996094 292.949219 563.996094 286.585938 L 563.996094 220.292969 C 563.996094 213.929688 558.832031 208.761719 552.46875 208.761719 L 269.085938 208.761719 C 262.722656 208.761719 257.558594 213.929688 257.558594 220.292969 L 257.558594 229.859375 L 231.617188 229.859375 L 231.617188 215.910156 C 231.617188 209.546875 226.453125 204.382812 220.089844 204.382812 C 213.726562 204.382812 208.5625 209.546875 208.5625 215.910156 L 208.5625 229.859375 L 180.660156 229.859375 L 180.660156 215.910156 C 180.660156 209.546875 175.496094 204.382812 169.132812 204.382812 C 162.769531 204.382812 157.601562 209.546875 157.601562 215.910156 L 157.601562 229.859375 L 129.699219 229.859375 L 129.699219 215.910156 C 129.699219 209.546875 124.535156 204.382812 118.171875 204.382812 C 111.808594 204.382812 106.644531 209.546875 106.644531 215.910156 L 106.644531 229.859375 L 96.035156 229.859375 C 89.671875 229.859375 84.507812 235.027344 84.507812 241.390625 L 84.507812 422.164062 L 23.058594 283.125 L 23.058594 107.882812 L 51.417969 107.882812 C 57.785156 107.882812 62.949219 102.71875 62.949219 96.355469 L 62.949219 29.257812 C 74.476562 35.367188 88.65625 45.859375 88.65625 60.847656 L 88.65625 130.941406 C 88.65625 137.304688 93.824219 142.46875 100.1875 142.46875 L 257.558594 142.46875 L 257.558594 156.882812 C 257.558594 163.246094 262.722656 168.410156 269.085938 168.410156 L 552.46875 168.410156 C 558.835938 168.410156 564 163.246094 564 156.882812 L 564 98.199219 C 564 91.835938 558.835938 86.671875 552.472656 86.671875 Z M 280.617188 231.820312 L 303.675781 231.820312 L 303.675781 245.769531 C 303.675781 252.136719 308.839844 257.300781 315.203125 257.300781 C 321.566406 257.300781 326.734375 252.136719 326.734375 245.769531 L 326.734375 231.820312 L 354.632812 231.820312 L 354.632812 245.769531 C 354.632812 252.136719 359.796875 257.300781 366.160156 257.300781 C 372.527344 257.300781 377.691406 252.136719 377.691406 245.769531 L 377.691406 231.820312 L 405.589844 231.820312 L 405.589844 245.769531 C 405.589844 252.136719 410.753906 257.300781 417.121094 257.300781 C 423.484375 257.300781 428.648438 252.136719 428.648438 245.769531 L 428.648438 231.820312 L 456.546875 231.820312 L 456.546875 245.769531 C 456.546875 252.136719 461.714844 257.300781 468.078125 257.300781 C 474.441406 257.300781 479.605469 252.136719 479.605469 245.769531 L 479.605469 231.820312 L 507.507812 231.820312 L 507.507812 245.769531 C 507.507812 252.136719 512.671875 257.300781 519.035156 257.300781 C 525.398438 257.300781 530.5625 252.136719 530.5625 245.769531 L 530.5625 231.820312 L 540.710938 231.820312 L 540.710938 275.054688 L 370.886719 275.054688 C 366.667969 275.042969 362.769531 277.347656 360.742188 281.050781 C 341.140625 319.039062 327.421875 359.769531 320.042969 401.875 C 314.164062 437.960938 293.644531 450.179688 280.5 454.445312 Z M 257.558594 119.414062 L 201.296875 119.414062 L 201.296875 55.65625 C 202.21875 38.941406 218.820312 30.523438 231.15625 26.488281 L 231.15625 98.316406 C 231.15625 104.679688 236.320312 109.84375 242.6875 109.84375 L 257.097656 109.84375 Z M 540.941406 145.351562 L 280.617188 145.351562 L 280.617188 109.730469 L 540.941406 109.730469 Z M 540.941406 145.351562 " style=" stroke:none;fill-rule:nonzero;fill:rgb(0%,0%,0%);fill-opacity:1;" />
</g>
</svg>