<svg xmlns="http://www.w3.org/2000/svg" height="504pt" version="1.1" viewBox="-32 1 504 504.8385" width="504pt">
<g id="surface1">
<path d="M 0.429688 372.957031 C 0.417969 377.097656 2.609375 380.929688 6.199219 382.996094 L 214.804688 503.453125 C 218.371094 505.519531 222.777344 505.519531 226.34375 503.453125 L 434.949219 382.996094 C 438.539062 380.929688 440.730469 377.097656 440.71875 372.957031 L 440.71875 132.042969 C 440.742188 128.976562 439.53125 126.035156 437.371094 123.851562 C 436.644531 123.136719 435.835938 122.515625 434.949219 122.007812 L 226.34375 1.550781 C 222.777344 -0.515625 218.371094 -0.515625 214.804688 1.550781 L 6.199219 122.007812 C 2.609375 124.070312 0.417969 127.902344 0.429688 132.042969 C 0.429688 132.042969 0.429688 372.957031 0.429688 372.957031 Z M 220.574219 24.855469 L 417.644531 138.621094 L 417.644531 366.265625 L 220.574219 480.144531 L 23.503906 366.265625 L 23.503906 138.738281 Z M 220.574219 24.855469 " style=" stroke:none;fill-rule:nonzero;fill:rgb(0%,0%,0%);fill-opacity:1;" />
<path d="M 220.574219 389.457031 C 296.21875 389.433594 357.519531 328.097656 357.496094 252.464844 C 357.472656 176.824219 296.136719 115.523438 220.503906 115.546875 C 144.863281 115.566406 83.5625 176.902344 83.585938 252.535156 C 83.597656 288.820312 98.007812 323.632812 123.65625 349.304688 C 149.304688 375.09375 184.207031 389.558594 220.574219 389.457031 Z M 139.808594 171.734375 C 184.300781 127.199219 256.480469 127.152344 301.019531 171.644531 C 345.554688 216.132812 345.601562 288.316406 301.109375 332.851562 C 256.621094 377.390625 184.4375 377.433594 139.902344 332.945312 C 118.542969 311.609375 106.519531 282.683594 106.464844 252.5 C 106.324219 222.203125 118.335938 193.101562 139.808594 171.734375 Z M 139.808594 171.734375 " style=" stroke:none;fill-rule:nonzero;fill:rgb(0%,0%,0%);fill-opacity:1;" />
</g>
</svg>