<svg xmlns="http://www.w3.org/2000/svg" height="536pt" version="1.1" viewBox="-75 0 536 536.39975" width="536pt">
<g id="surface1">
<path d="M 299.402344 221.925781 L 299.402344 101.714844 C 299.503906 100.792969 299.503906 99.871094 299.402344 98.949219 C 298.824219 96.410156 283.035156 35.902344 197.628906 0.863281 C 194.828125 -0.289062 191.671875 -0.289062 188.871094 0.863281 C 103.464844 35.441406 87.792969 96.410156 87.097656 98.949219 C 86.996094 99.871094 86.996094 100.792969 87.097656 101.714844 L 87.097656 221.925781 C 66.007812 232.414062 7.226562 264.6875 0.195312 303.875 C 0.125 304.566406 0.125 305.257812 0.195312 305.949219 L 0.195312 426.046875 C 0.21875 432.40625 5.394531 437.558594 11.757812 437.535156 C 15.304688 437.523438 18.648438 435.875 20.824219 433.074219 C 20.824219 433.074219 56.671875 386.972656 99.546875 382.59375 L 181.492188 382.59375 L 181.492188 419.820312 C 181.492188 426.183594 186.65625 431.347656 193.019531 431.347656 C 199.382812 431.347656 204.542969 426.183594 204.542969 419.820312 L 204.542969 382.59375 L 287.066406 382.59375 C 329.941406 387.433594 365.441406 432.613281 365.789062 433.074219 C 369.695312 438.101562 376.933594 439.023438 381.960938 435.117188 C 384.761719 432.9375 386.40625 429.59375 386.417969 426.046875 L 386.417969 305.832031 C 386.488281 305.140625 386.488281 304.449219 386.417969 303.757812 C 379.273438 264.6875 320.492188 232.414062 299.402344 221.925781 Z M 86.640625 361.386719 C 62.621094 367.703125 40.59375 380.035156 22.671875 397.230469 L 22.671875 306.984375 C 27.167969 286.46875 59.554688 262.84375 86.640625 247.859375 Z M 276.351562 229.1875 L 276.351562 359.542969 L 204.546875 359.542969 L 204.546875 264.453125 C 204.546875 258.09375 199.382812 252.929688 193.019531 252.929688 C 186.660156 252.929688 181.496094 258.09375 181.496094 264.453125 L 181.496094 359.65625 L 109.691406 359.65625 L 109.691406 103.328125 C 112.34375 95.144531 128.246094 52.269531 193.023438 24.148438 C 257.910156 52.382812 273.703125 95.605469 276.351562 103.328125 Z M 363.367188 397.117188 C 345.445312 379.917969 323.421875 367.585938 299.402344 361.269531 L 299.402344 247.859375 C 326.488281 262.726562 358.875 286.46875 363.367188 306.984375 Z M 363.367188 397.117188 " style=" stroke:none;fill-rule:nonzero;fill:rgb(0%,0%,0%);fill-opacity:1;" />
<path d="M 136.542969 446.675781 C 130.183594 446.675781 125.019531 451.839844 125.019531 458.199219 L 125.019531 524.472656 C 125.019531 530.835938 130.183594 536 136.542969 536 C 142.90625 536 148.070312 530.835938 148.070312 524.472656 L 148.070312 458.199219 C 148.070312 451.839844 142.90625 446.675781 136.542969 446.675781 Z M 136.542969 446.675781 " style=" stroke:none;fill-rule:nonzero;fill:rgb(0%,0%,0%);fill-opacity:1;" />
<path d="M 249.496094 446.675781 C 243.132812 446.675781 237.972656 451.839844 237.972656 458.199219 L 237.972656 524.472656 C 237.972656 530.835938 243.132812 536 249.496094 536 C 255.859375 536 261.019531 530.835938 261.019531 524.472656 L 261.019531 458.199219 C 261.019531 451.839844 255.859375 446.675781 249.496094 446.675781 Z M 249.496094 446.675781 " style=" stroke:none;fill-rule:nonzero;fill:rgb(0%,0%,0%);fill-opacity:1;" />
<path d="M 193.019531 93.644531 C 164.632812 93.644531 141.617188 116.664062 141.617188 145.050781 C 141.617188 173.4375 164.632812 196.453125 193.019531 196.453125 C 221.40625 196.453125 244.425781 173.4375 244.425781 145.050781 C 244.355469 116.683594 221.375 93.714844 193.019531 93.644531 Z M 193.019531 173.402344 C 177.355469 173.402344 164.667969 160.714844 164.667969 145.050781 C 164.667969 129.386719 177.355469 116.699219 193.019531 116.699219 C 208.683594 116.699219 221.375 129.386719 221.375 145.050781 C 221.375 160.714844 208.671875 173.402344 193.019531 173.402344 Z M 193.019531 173.402344 " style=" stroke:none;fill-rule:nonzero;fill:rgb(0%,0%,0%);fill-opacity:1;" />
</g>
</svg>