<svg xmlns="http://www.w3.org/2000/svg" height="613pt" version="1.1" viewBox="-25 0 613 613.39767" width="613pt">
<g id="surface1">
<path d="M 184.152344 288.054688 L 184.152344 263.964844 C 191.910156 261.636719 199.402344 258.5 206.511719 254.625 L 223.457031 271.917969 C 227.953125 276.386719 235.214844 276.386719 239.710938 271.917969 L 271.871094 239.640625 C 276.339844 235.144531 276.339844 227.882812 271.871094 223.390625 L 254.808594 206.328125 C 258.683594 199.214844 261.804688 191.722656 264.144531 183.96875 L 288.238281 183.96875 C 294.601562 183.96875 299.765625 178.804688 299.765625 172.441406 L 299.765625 127.140625 C 299.765625 120.777344 294.601562 115.613281 288.238281 115.613281 L 264.03125 115.613281 C 261.703125 107.855469 258.566406 100.363281 254.695312 93.25 L 271.871094 75.960938 C 276.339844 71.46875 276.339844 64.203125 271.871094 59.710938 L 239.710938 27.894531 C 235.214844 23.421875 227.953125 23.421875 223.457031 27.894531 L 206.398438 44.953125 C 199.285156 41.082031 191.792969 37.945312 184.035156 35.617188 L 184.035156 11.527344 C 184.035156 5.164062 178.871094 0 172.507812 0 L 127.207031 0 C 120.84375 0 115.679688 5.164062 115.679688 11.527344 L 115.679688 35.617188 C 107.921875 37.945312 100.429688 41.082031 93.320312 44.953125 L 76.375 27.894531 C 71.878906 23.421875 64.617188 23.421875 60.125 27.894531 L 27.960938 59.9375 C 23.488281 64.433594 23.488281 71.695312 27.960938 76.191406 L 45.023438 93.25 C 41.148438 100.363281 38.011719 107.855469 35.683594 115.613281 L 11.710938 115.613281 C 5.347656 115.613281 0.183594 120.777344 0.183594 127.140625 L 0.183594 172.441406 C 0.183594 178.804688 5.347656 183.96875 11.710938 183.96875 L 35.800781 183.96875 C 38.128906 191.726562 41.265625 199.21875 45.136719 206.328125 L 27.964844 223.390625 C 23.492188 227.882812 23.492188 235.144531 27.964844 239.640625 L 60.007812 271.917969 C 64.503906 276.390625 71.765625 276.390625 76.261719 271.917969 L 93.320312 254.855469 C 100.433594 258.730469 107.925781 261.855469 115.679688 264.195312 L 115.679688 288.054688 C 115.679688 294.417969 120.84375 299.582031 127.207031 299.582031 L 172.507812 299.582031 C 178.871094 299.652344 184.082031 294.53125 184.152344 288.167969 C 184.152344 288.136719 184.152344 288.089844 184.152344 288.054688 Z M 170.203125 243.792969 C 164.796875 244.957031 160.96875 249.785156 161.097656 255.320312 L 161.097656 276.527344 L 138.734375 276.527344 L 138.734375 255.089844 C 138.863281 249.554688 135.035156 244.726562 129.628906 243.5625 C 118.320312 241.1875 107.542969 236.773438 97.816406 230.535156 C 93.261719 227.574219 87.257812 228.207031 83.40625 232.035156 L 68.191406 247.25 L 52.398438 231.574219 L 67.613281 216.359375 C 71.441406 212.507812 72.074219 206.503906 69.113281 201.949219 C 62.796875 192.242188 58.300781 181.453125 55.855469 170.136719 C 54.691406 164.730469 49.863281 160.902344 44.332031 161.027344 L 23.234375 161.027344 L 23.234375 138.667969 L 44.675781 138.667969 C 50.207031 138.792969 55.039062 134.96875 56.203125 129.5625 C 58.644531 118.242188 63.140625 107.453125 69.457031 97.746094 C 72.421875 93.195312 71.785156 87.1875 67.960938 83.339844 L 52.746094 68.121094 L 68.191406 52.90625 L 83.40625 68.121094 C 87.394531 71.777344 93.390625 72.15625 97.816406 69.046875 C 107.519531 62.726562 118.308594 58.234375 129.628906 55.789062 C 135.035156 54.625 138.863281 49.796875 138.734375 44.261719 L 138.734375 23.054688 L 160.980469 23.054688 L 160.980469 44.609375 C 160.855469 50.140625 164.683594 54.972656 170.089844 56.136719 C 181.269531 58.523438 191.929688 62.890625 201.558594 69.046875 C 206.109375 72.007812 212.113281 71.375 215.964844 67.546875 L 231.640625 52.90625 L 247.664062 68.121094 L 232.449219 83.339844 C 228.625 87.1875 227.988281 93.195312 230.953125 97.746094 C 237.269531 107.453125 241.765625 118.242188 244.207031 129.5625 C 245.371094 134.96875 250.203125 138.792969 255.734375 138.667969 L 277.175781 138.667969 L 277.175781 160.914062 L 255.160156 160.914062 C 249.625 160.789062 244.796875 164.613281 243.632812 170.019531 C 241.1875 181.339844 236.691406 192.128906 230.375 201.835938 C 227.414062 206.386719 228.046875 212.394531 231.875 216.242188 L 247.667969 231.574219 L 231.875 247.367188 L 216.65625 232.148438 C 212.738281 227.90625 206.28125 227.214844 201.554688 230.535156 C 191.988281 236.808594 181.371094 241.292969 170.203125 243.792969 Z M 170.203125 243.792969 " style=" stroke:none;fill-rule:nonzero;fill:rgb(0%,0%,0%);fill-opacity:1;" />
<path d="M 149.917969 83.570312 C 113.375 83.570312 83.753906 113.191406 83.753906 149.734375 C 83.753906 186.273438 113.375 215.898438 149.917969 215.898438 C 186.457031 215.898438 216.082031 186.273438 216.082031 149.734375 C 216.023438 113.214844 186.433594 83.640625 149.917969 83.570312 Z M 149.917969 192.84375 C 126.101562 192.84375 106.804688 173.546875 106.804688 149.734375 C 106.804688 125.917969 126.101562 106.625 149.917969 106.625 C 173.730469 106.625 193.027344 125.917969 193.027344 149.734375 C 193.027344 173.558594 173.742188 192.890625 149.917969 192.957031 C 149.917969 192.960938 149.917969 192.84375 149.917969 192.84375 Z M 149.917969 192.84375 " style=" stroke:none;fill-rule:nonzero;fill:rgb(0%,0%,0%);fill-opacity:1;" />
<path d="M 551.164062 350.070312 C 549.734375 343.867188 543.546875 339.996094 537.34375 341.425781 L 537.332031 341.425781 L 504.480469 348.800781 C 498.785156 338.324219 491.859375 328.570312 483.847656 319.753906 L 501.828125 291.28125 C 505.230469 285.898438 503.640625 278.789062 498.253906 275.375 L 448.691406 244.136719 C 443.308594 240.738281 436.195312 242.328125 432.785156 247.710938 L 414.800781 276.183594 C 403.550781 272.792969 391.945312 270.742188 380.222656 270.074219 L 372.382812 237.339844 C 370.953125 231.136719 364.765625 227.265625 358.5625 228.691406 L 358.550781 228.691406 L 300.917969 241.601562 C 294.714844 243.03125 290.84375 249.222656 292.269531 255.425781 L 292.269531 255.4375 L 299.648438 288.171875 C 289.214844 293.878906 279.5 300.792969 270.714844 308.804688 L 242.246094 290.824219 C 236.863281 287.421875 229.75 289.011719 226.339844 294.398438 L 195.101562 343.960938 C 191.699219 349.34375 193.289062 356.457031 198.671875 359.867188 L 227.144531 377.851562 C 223.757812 389.101562 221.703125 400.707031 221.035156 412.429688 L 188.183594 419.808594 C 181.984375 421.238281 178.109375 427.425781 179.539062 433.628906 L 179.539062 433.640625 L 192.449219 491.273438 C 193.878906 497.476562 200.066406 501.347656 206.269531 499.921875 L 206.28125 499.921875 L 239.132812 492.429688 C 244.828125 502.90625 251.753906 512.65625 259.765625 521.476562 L 241.785156 549.945312 C 238.382812 555.328125 239.976562 562.441406 245.359375 565.851562 L 294.921875 597.089844 C 300.304688 600.492188 307.417969 598.902344 310.832031 593.519531 L 328.8125 565.046875 C 340.0625 568.433594 351.667969 570.488281 363.390625 571.15625 L 370.769531 604.007812 C 371.980469 609.367188 376.796875 613.136719 382.296875 612.996094 L 384.832031 612.996094 L 442.464844 600.089844 C 448.667969 598.660156 452.539062 592.46875 451.113281 586.265625 L 451.113281 586.257812 L 443.621094 553.175781 C 454.097656 547.480469 463.847656 540.5625 472.667969 532.542969 L 501.253906 550.523438 C 506.636719 553.925781 513.75 552.332031 517.160156 546.949219 L 548.398438 497.382812 C 551.796875 492.003906 550.207031 484.890625 544.824219 481.476562 L 516.351562 463.496094 C 519.742188 452.246094 521.792969 440.640625 522.460938 428.914062 L 555.199219 421.539062 C 561.398438 420.109375 565.273438 413.917969 563.84375 407.71875 L 563.84375 407.707031 Z M 508.746094 407.703125 C 503.386719 408.914062 499.617188 413.730469 499.753906 419.230469 C 499.902344 434.640625 497.253906 449.960938 491.917969 464.414062 C 490.058594 469.53125 492.03125 475.25 496.640625 478.132812 L 523.039062 494.730469 L 504.132812 524.816406 L 477.621094 508.214844 C 473.011719 505.324219 467.007812 506.039062 463.214844 509.945312 C 452.484375 520.976562 439.824219 529.957031 425.867188 536.457031 C 420.898438 538.726562 418.214844 544.15625 419.414062 549.484375 L 426.328125 579.796875 L 391.746094 587.636719 L 384.832031 557.320312 C 383.621094 551.960938 378.804688 548.191406 373.304688 548.328125 L 371.691406 548.328125 C 356.902344 548.261719 342.226562 545.609375 328.351562 540.492188 C 323.230469 538.636719 317.515625 540.605469 314.632812 545.21875 L 297.917969 571.613281 L 267.835938 552.710938 L 284.433594 526.3125 C 287.28125 521.574219 286.355469 515.476562 282.242188 511.789062 C 271.210938 501.058594 262.230469 488.402344 255.730469 474.441406 C 253.550781 469.679688 248.445312 466.984375 243.28125 467.871094 L 212.964844 474.789062 L 205.128906 440.207031 L 235.441406 433.292969 C 240.800781 432.082031 244.570312 427.261719 244.433594 421.765625 C 244.285156 406.351562 246.9375 391.035156 252.273438 376.578125 C 254.035156 371.554688 252.121094 365.988281 247.660156 363.09375 L 221.148438 346.496094 L 240.054688 316.410156 L 266.449219 333.007812 C 271.058594 335.902344 277.066406 335.1875 280.859375 331.28125 C 291.589844 320.25 304.246094 311.269531 318.203125 304.769531 C 323.125 302.460938 325.765625 297.035156 324.542969 291.742188 L 317.628906 261.425781 L 352.207031 253.589844 L 359.125 283.90625 C 360.335938 289.265625 365.152344 293.035156 370.652344 292.894531 L 372.148438 292.894531 C 387.054688 292.917969 401.84375 295.570312 415.835938 300.734375 C 420.953125 302.589844 426.671875 300.617188 429.554688 296.007812 L 446.152344 269.613281 L 476.238281 288.515625 L 459.636719 314.910156 C 456.605469 319.570312 457.332031 325.722656 461.367188 329.550781 C 472.410156 340.316406 481.390625 353.019531 487.878906 367.011719 C 490.183594 371.933594 495.613281 374.574219 500.90625 373.351562 L 531.21875 366.4375 L 539.058594 401.015625 Z M 508.746094 407.703125 " style=" stroke:none;fill-rule:nonzero;fill:rgb(0%,0%,0%);fill-opacity:1;" />
<path d="M 372.152344 338.425781 C 326.761719 338.390625 289.945312 375.164062 289.910156 420.554688 C 289.875 465.949219 326.644531 502.765625 372.039062 502.800781 C 417.429688 502.835938 454.246094 466.0625 454.28125 420.671875 C 454.28125 414.5625 453.613281 408.476562 452.265625 402.515625 C 443.734375 365.113281 410.527344 338.542969 372.152344 338.425781 Z M 385.179688 478.363281 C 380.867188 479.34375 376.464844 479.851562 372.039062 479.859375 C 339.382812 480.035156 312.765625 453.695312 312.59375 421.039062 C 312.445312 393.167969 331.785156 368.972656 359.011719 362.980469 C 363.324219 362 367.726562 361.492188 372.152344 361.480469 C 404.808594 361.308594 431.421875 387.648438 431.597656 420.300781 C 431.746094 448.175781 412.40625 472.367188 385.179688 478.363281 Z M 385.179688 478.363281 " style=" stroke:none;fill-rule:nonzero;fill:rgb(0%,0%,0%);fill-opacity:1;" />
</g>
</svg>